<svg width="18" height="18" viewBox="0 0 18 18" fill="none" xmlns="http://www.w3.org/2000/svg">
<g clip-path="url(#clip0_798_1179)">
<path d="M15.8693 2.133H2.13074V15.8715H15.8693V2.133Z" stroke="#CDCDCD" stroke-width="0.815789" stroke-linecap="round" stroke-linejoin="round"/>
<path d="M5.5654 0.415527V2.13284" stroke="#CDCDCD" stroke-width="0.815789" stroke-linecap="round" stroke-linejoin="round"/>
<path d="M7.8551 0.415527V2.13284" stroke="#CDCDCD" stroke-width="0.815789" stroke-linecap="round" stroke-linejoin="round"/>
<path d="M10.1449 0.415527V2.13284" stroke="#CDCDCD" stroke-width="0.815789" stroke-linecap="round" stroke-linejoin="round"/>
<path d="M12.4346 0.415527V2.13284" stroke="#CDCDCD" stroke-width="0.815789" stroke-linecap="round" stroke-linejoin="round"/>
<path d="M5.5654 15.8713V17.5886" stroke="#CDCDCD" stroke-width="0.815789" stroke-linecap="round" stroke-linejoin="round"/>
<path d="M7.8551 15.8713V17.5886" stroke="#CDCDCD" stroke-width="0.815789" stroke-linecap="round" stroke-linejoin="round"/>
<path d="M10.1449 15.8713V17.5886" stroke="#CDCDCD" stroke-width="0.815789" stroke-linecap="round" stroke-linejoin="round"/>
<path d="M12.4346 15.8713V17.5886" stroke="#CDCDCD" stroke-width="0.815789" stroke-linecap="round" stroke-linejoin="round"/>
<path d="M17.5866 5.56757H15.8693" stroke="#CDCDCD" stroke-width="0.815789" stroke-linecap="round" stroke-linejoin="round"/>
<path d="M17.5866 7.85724H15.8693" stroke="#CDCDCD" stroke-width="0.815789" stroke-linecap="round" stroke-linejoin="round"/>
<path d="M17.5866 10.147H15.8693" stroke="#CDCDCD" stroke-width="0.815789" stroke-linecap="round" stroke-linejoin="round"/>
<path d="M17.5866 12.4367H15.8693" stroke="#CDCDCD" stroke-width="0.815789" stroke-linecap="round" stroke-linejoin="round"/>
<path d="M2.13074 5.56757H0.413422" stroke="#CDCDCD" stroke-width="0.815789" stroke-linecap="round" stroke-linejoin="round"/>
<path d="M2.13074 7.85724H0.413422" stroke="#CDCDCD" stroke-width="0.815789" stroke-linecap="round" stroke-linejoin="round"/>
<path d="M2.13074 10.147H0.413422" stroke="#CDCDCD" stroke-width="0.815789" stroke-linecap="round" stroke-linejoin="round"/>
<path d="M2.13074 12.4367H0.413422" stroke="#CDCDCD" stroke-width="0.815789" stroke-linecap="round" stroke-linejoin="round"/>
<path d="M4.4205 5.56754C4.4205 4.93468 4.93252 4.42267 5.56538 4.42267" stroke="#CDCDCD" stroke-width="0.815789" stroke-linecap="round" stroke-linejoin="round"/>
<path d="M13.5795 5.56754C13.5795 4.93468 13.0675 4.42267 12.4346 4.42267" stroke="#CDCDCD" stroke-width="0.815789" stroke-linecap="round" stroke-linejoin="round"/>
<path d="M4.4205 12.4367C4.4205 13.0696 4.93252 13.5816 5.56538 13.5816" stroke="#CDCDCD" stroke-width="0.815789" stroke-linecap="round" stroke-linejoin="round"/>
<path d="M13.5795 12.4367C13.5795 13.0696 13.0675 13.5816 12.4346 13.5816" stroke="#CDCDCD" stroke-width="0.815789" stroke-linecap="round" stroke-linejoin="round"/>
<path d="M5.5654 4.42267H12.4347" stroke="#CDCDCD" stroke-width="0.815789" stroke-linecap="round" stroke-linejoin="round"/>
<path d="M13.5795 5.56757V12.4368" stroke="#CDCDCD" stroke-width="0.815789" stroke-linecap="round" stroke-linejoin="round"/>
<path d="M12.4347 13.5815H5.5654" stroke="#CDCDCD" stroke-width="0.815789" stroke-linecap="round" stroke-linejoin="round"/>
<path d="M4.4205 5.56757V12.4368" stroke="#CDCDCD" stroke-width="0.815789" stroke-linecap="round" stroke-linejoin="round"/>
</g>
<defs>
<clipPath id="clip0_798_1179">
<rect width="18" height="18" fill="white" transform="translate(0 0.00201416)"/>
</clipPath>
</defs>
</svg>
