<svg width="18" height="14" viewBox="0 0 18 14" fill="none" xmlns="http://www.w3.org/2000/svg">
<g clip-path="url(#clip0_798_1352)">
<path d="M17.5866 1.4032H0.413452V12.852H17.5866V1.4032Z" stroke="#CDCDCD" stroke-width="0.815789" stroke-linecap="round" stroke-linejoin="round"/>
<path d="M15.2968 3.69299V5.41031" stroke="#CDCDCD" stroke-width="0.815789" stroke-linecap="round" stroke-linejoin="round"/>
<path d="M11.8622 3.69299V5.41031" stroke="#CDCDCD" stroke-width="0.815789" stroke-linecap="round" stroke-linejoin="round"/>
<path d="M11.8622 3.69299H15.2968" stroke="#CDCDCD" stroke-width="0.815789" stroke-linecap="round" stroke-linejoin="round"/>
<path d="M14.7244 5.98291H12.4346" stroke="#CDCDCD" stroke-width="0.815789" stroke-linecap="round" stroke-linejoin="round"/>
<path d="M11.8622 5.4104L12.4346 5.98284" stroke="#CDCDCD" stroke-width="0.815789" stroke-linecap="round" stroke-linejoin="round"/>
<path d="M15.2968 5.4104L14.7244 5.98284" stroke="#CDCDCD" stroke-width="0.815789" stroke-linecap="round" stroke-linejoin="round"/>
<path d="M6.13781 10.5623C8.03471 10.5623 9.57244 9.02452 9.57244 7.12762C9.57244 5.23073 8.03471 3.69299 6.13781 3.69299C4.24092 3.69299 2.70319 5.23073 2.70319 7.12762C2.70319 9.02452 4.24092 10.5623 6.13781 10.5623Z" stroke="#CDCDCD" stroke-width="0.815789" stroke-linecap="round" stroke-linejoin="round"/>
<path d="M6.1378 8.27266C6.77009 8.27266 7.28267 7.76008 7.28267 7.12779C7.28267 6.49549 6.77009 5.98291 6.1378 5.98291C5.5055 5.98291 4.99292 6.49549 4.99292 7.12779C4.99292 7.76008 5.5055 8.27266 6.1378 8.27266Z" stroke="#CDCDCD" stroke-width="0.815789" stroke-linecap="round" stroke-linejoin="round"/>
<path d="M6.94751 6.31782L8.56624 4.6991" stroke="#CDCDCD" stroke-width="0.815789" stroke-linecap="round" stroke-linejoin="round"/>
<path d="M5.32811 7.93726L3.70938 9.55598" stroke="#CDCDCD" stroke-width="0.815789" stroke-linecap="round" stroke-linejoin="round"/>
<path d="M6.94751 7.93726L8.56624 9.55598" stroke="#CDCDCD" stroke-width="0.815789" stroke-linecap="round" stroke-linejoin="round"/>
<path d="M5.32811 6.31782L3.70938 4.6991" stroke="#CDCDCD" stroke-width="0.815789" stroke-linecap="round" stroke-linejoin="round"/>
</g>
<defs>
<clipPath id="clip0_798_1352">
<rect width="18" height="12.2756" fill="white" transform="translate(0 0.989746)"/>
</clipPath>
</defs>
</svg>
