<svg width="18" height="14" viewBox="0 0 18 14" fill="none" xmlns="http://www.w3.org/2000/svg">
<g clip-path="url(#clip0_798_1209)">
<path d="M1.55829 13.4202V0.826538" stroke="#CDCDCD" stroke-width="0.815789" stroke-linecap="round" stroke-linejoin="round"/>
<path d="M0.413391 0.826538H1.55827" stroke="#CDCDCD" stroke-width="0.815789" stroke-linecap="round" stroke-linejoin="round"/>
<path d="M1.55829 1.97131H17.5866" stroke="#CDCDCD" stroke-width="0.815789" stroke-linecap="round" stroke-linejoin="round"/>
<path d="M17.5866 9.98566H1.55829" stroke="#CDCDCD" stroke-width="0.815789" stroke-linecap="round" stroke-linejoin="round"/>
<path d="M17.5865 1.97131V9.98545" stroke="#CDCDCD" stroke-width="0.815789" stroke-linecap="round" stroke-linejoin="round"/>
<path d="M3.87986 11.4486L3.84805 9.98566" stroke="#CDCDCD" stroke-width="0.815789" stroke-linecap="round" stroke-linejoin="round"/>
<path d="M10.7491 11.4486L10.7173 9.98566" stroke="#CDCDCD" stroke-width="0.815789" stroke-linecap="round" stroke-linejoin="round"/>
<path d="M3.87982 11.4484H10.7491" stroke="#CDCDCD" stroke-width="0.815789" stroke-linecap="round" stroke-linejoin="round"/>
<path d="M6.13779 9.98566L6.16959 11.4486" stroke="#CDCDCD" stroke-width="0.815789" stroke-linecap="round" stroke-linejoin="round"/>
<path d="M8.42752 9.98566L8.45932 11.4486" stroke="#CDCDCD" stroke-width="0.815789" stroke-linecap="round" stroke-linejoin="round"/>
<path d="M6.13781 8.2681C7.4024 8.2681 8.42756 7.24295 8.42756 5.97835C8.42756 4.71376 7.4024 3.6886 6.13781 3.6886C4.87321 3.6886 3.84805 4.71376 3.84805 5.97835C3.84805 7.24295 4.87321 8.2681 6.13781 8.2681Z" stroke="#CDCDCD" stroke-width="0.815789" stroke-linecap="round" stroke-linejoin="round"/>
<path d="M13.007 8.2681C14.2716 8.2681 15.2968 7.24295 15.2968 5.97835C15.2968 4.71376 14.2716 3.6886 13.007 3.6886C11.7424 3.6886 10.7173 4.71376 10.7173 5.97835C10.7173 7.24295 11.7424 8.2681 13.007 8.2681Z" stroke="#CDCDCD" stroke-width="0.815789" stroke-linecap="round" stroke-linejoin="round"/>
<ellipse cx="6.13776" cy="5.97849" rx="0.413428" ry="0.413428" fill="#CDCDCD"/>
<ellipse cx="13.0071" cy="5.97849" rx="0.413428" ry="0.413428" fill="#CDCDCD"/>
</g>
<defs>
<clipPath id="clip0_798_1209">
<rect width="18" height="13.4205" fill="white" transform="translate(0 0.413208)"/>
</clipPath>
</defs>
</svg>
