<svg width="15" height="20" viewBox="0 0 15 20" fill="none" xmlns="http://www.w3.org/2000/svg">
<g clip-path="url(#clip0_798_1228)">
<path d="M11.3127 14.6207L5.27031 14.6207" stroke="#CDCDCD" stroke-width="0.815789" stroke-linecap="round" stroke-linejoin="round"/>
<path d="M11.3127 17.0375L5.27031 17.0375" stroke="#CDCDCD" stroke-width="0.815789" stroke-linecap="round" stroke-linejoin="round"/>
<path d="M10.4063 11.2973L10.4063 7.06763L6.17663 7.06763L6.17663 11.2973L10.4063 11.2973Z" stroke="#CDCDCD" stroke-width="0.815789" stroke-linecap="round" stroke-linejoin="round"/>
<path d="M9.19788 7.06743L9.19788 6.16107" stroke="#CDCDCD" stroke-width="0.815789" stroke-linecap="round" stroke-linejoin="round"/>
<path d="M7.38513 7.06743L7.38513 6.16107" stroke="#CDCDCD" stroke-width="0.815789" stroke-linecap="round" stroke-linejoin="round"/>
<path d="M5.27028 8.276L6.17664 8.276" stroke="#CDCDCD" stroke-width="0.815789" stroke-linecap="round" stroke-linejoin="round"/>
<path d="M5.27028 10.0887L6.17664 10.0887" stroke="#CDCDCD" stroke-width="0.815789" stroke-linecap="round" stroke-linejoin="round"/>
<path d="M11.3127 8.276L10.4064 8.276" stroke="#CDCDCD" stroke-width="0.815789" stroke-linecap="round" stroke-linejoin="round"/>
<path d="M11.3127 10.0887L10.4064 10.0887" stroke="#CDCDCD" stroke-width="0.815789" stroke-linecap="round" stroke-linejoin="round"/>
<path d="M9.19788 12.2035L9.19788 11.2971" stroke="#CDCDCD" stroke-width="0.815789" stroke-linecap="round" stroke-linejoin="round"/>
<path d="M7.38513 12.2035L7.38513 11.2971" stroke="#CDCDCD" stroke-width="0.815789" stroke-linecap="round" stroke-linejoin="round"/>
<path d="M11.917 1.32727L11.917 3.74423" stroke="#CDCDCD" stroke-width="0.815789" stroke-linecap="round" stroke-linejoin="round"/>
<path d="M9.5 1.32727L9.5 3.74423" stroke="#CDCDCD" stroke-width="0.815789" stroke-linecap="round" stroke-linejoin="round"/>
<path d="M7.08301 1.32727L7.08301 3.74423" stroke="#CDCDCD" stroke-width="0.815789" stroke-linecap="round" stroke-linejoin="round"/>
<path d="M4.66605 1.32727L4.66605 3.74423" stroke="#CDCDCD" stroke-width="0.815789" stroke-linecap="round" stroke-linejoin="round"/>
<path d="M11.917 1.32727L4.66608 1.32727" stroke="#CDCDCD" stroke-width="0.815789" stroke-linecap="round" stroke-linejoin="round"/>
<path d="M2.85333 6.16107L2.85333 7.97379" stroke="#CDCDCD" stroke-width="0.815789" stroke-linecap="round" stroke-linejoin="round"/>
<path d="M2.85333 10.3909L2.85333 12.2037" stroke="#CDCDCD" stroke-width="0.815789" stroke-linecap="round" stroke-linejoin="round"/>
<path d="M13.7297 2.53564L13.7297 19.4544" stroke="#CDCDCD" stroke-width="0.815789" stroke-linecap="round" stroke-linejoin="round"/>
<path d="M0.436371 2.53564L0.43637 19.4544" stroke="#CDCDCD" stroke-width="0.815789" stroke-linecap="round" stroke-linejoin="round"/>
<path d="M13.7297 19.4545L0.436386 19.4545" stroke="#CDCDCD" stroke-width="0.815789" stroke-linecap="round" stroke-linejoin="round"/>
<path d="M4.66605 2.53564L0.436364 2.53564" stroke="#CDCDCD" stroke-width="0.815789" stroke-linecap="round" stroke-linejoin="round"/>
<path d="M13.7297 2.53564L11.917 2.53564" stroke="#CDCDCD" stroke-width="0.815789" stroke-linecap="round" stroke-linejoin="round"/>
<path d="M4.66608 3.74432L11.917 3.74432" stroke="#CDCDCD" stroke-width="0.815789" stroke-linecap="round" stroke-linejoin="round"/>
<ellipse cx="2.85337" cy="14.6204" rx="0.436396" ry="0.436396" transform="rotate(90 2.85337 14.6204)" fill="#CDCDCD"/>
<ellipse cx="2.85337" cy="17.0375" rx="0.436396" ry="0.436396" transform="rotate(90 2.85337 17.0375)" fill="#CDCDCD"/>
</g>
<defs>
<clipPath id="clip0_798_1228">
<rect width="19" height="14.1661" fill="white" transform="translate(14.1661 0.890686) rotate(90)"/>
</clipPath>
</defs>
</svg>
