<svg width="10" height="19" viewBox="0 0 10 19" fill="none" xmlns="http://www.w3.org/2000/svg">
<path d="M9.6176 0.418219C9.86245 0.686085 10 1.04934 10 1.4281C10 1.80687 9.86245 2.17012 9.6176 2.43799L3.15257 9.50862L9.6176 16.5793C9.85551 16.8487 9.98716 17.2095 9.98418 17.584C9.9812 17.9585 9.84385 18.3168 9.60169 18.5816C9.35954 18.8465 9.03196 18.9967 8.68951 18.9999C8.34706 19.0032 8.01715 18.8592 7.77082 18.599L0.382399 10.5185C0.137549 10.2506 4.32191e-07 9.88739 4.15635e-07 9.50862C3.99079e-07 9.12986 0.137549 8.7666 0.382399 8.49874L7.77082 0.418219C8.01575 0.150433 8.34789 -3.64898e-07 8.69421 -3.80036e-07C9.04053 -3.95174e-07 9.37268 0.150433 9.6176 0.418219Z" fill="#757575"/>
</svg>
