<svg width="27" height="27" viewBox="0 0 27 27" fill="none" xmlns="http://www.w3.org/2000/svg">
<g clip-path="url(#clip0_798_524)">
<path d="M23.8039 3.19604H3.19611V23.8038H23.8039V3.19604Z" stroke="#757575" stroke-width="1.3" stroke-linecap="round" stroke-linejoin="round"/>
<path d="M8.34808 0.620117V3.19609" stroke="#757575" stroke-width="1.3" stroke-linecap="round" stroke-linejoin="round"/>
<path d="M11.7827 0.620117V3.19609" stroke="#757575" stroke-width="1.3" stroke-linecap="round" stroke-linejoin="round"/>
<path d="M15.2173 0.620117V3.19609" stroke="#757575" stroke-width="1.3" stroke-linecap="round" stroke-linejoin="round"/>
<path d="M18.6519 0.620117V3.19609" stroke="#757575" stroke-width="1.3" stroke-linecap="round" stroke-linejoin="round"/>
<path d="M8.34808 23.804V26.3799" stroke="#757575" stroke-width="1.3" stroke-linecap="round" stroke-linejoin="round"/>
<path d="M11.7827 23.804V26.3799" stroke="#757575" stroke-width="1.3" stroke-linecap="round" stroke-linejoin="round"/>
<path d="M15.2173 23.804V26.3799" stroke="#757575" stroke-width="1.3" stroke-linecap="round" stroke-linejoin="round"/>
<path d="M18.6519 23.804V26.3799" stroke="#757575" stroke-width="1.3" stroke-linecap="round" stroke-linejoin="round"/>
<path d="M26.3799 8.34814H23.8039" stroke="#757575" stroke-width="1.3" stroke-linecap="round" stroke-linejoin="round"/>
<path d="M26.3799 11.7827H23.8039" stroke="#757575" stroke-width="1.3" stroke-linecap="round" stroke-linejoin="round"/>
<path d="M26.3799 15.2173H23.8039" stroke="#757575" stroke-width="1.3" stroke-linecap="round" stroke-linejoin="round"/>
<path d="M26.3799 18.6519H23.8039" stroke="#757575" stroke-width="1.3" stroke-linecap="round" stroke-linejoin="round"/>
<path d="M3.19609 8.34814H0.620117" stroke="#757575" stroke-width="1.3" stroke-linecap="round" stroke-linejoin="round"/>
<path d="M3.19609 11.7827H0.620117" stroke="#757575" stroke-width="1.3" stroke-linecap="round" stroke-linejoin="round"/>
<path d="M3.19609 15.2173H0.620117" stroke="#757575" stroke-width="1.3" stroke-linecap="round" stroke-linejoin="round"/>
<path d="M3.19609 18.6519H0.620117" stroke="#757575" stroke-width="1.3" stroke-linecap="round" stroke-linejoin="round"/>
<path d="M6.63074 8.34793C6.63074 7.39864 7.39876 6.63062 8.34805 6.63062" stroke="#757575" stroke-width="1.3" stroke-linecap="round" stroke-linejoin="round"/>
<path d="M20.3692 8.34793C20.3692 7.39864 19.6012 6.63062 18.6519 6.63062" stroke="#757575" stroke-width="1.3" stroke-linecap="round" stroke-linejoin="round"/>
<path d="M6.63074 18.6519C6.63074 19.6011 7.39876 20.3692 8.34805 20.3692" stroke="#757575" stroke-width="1.3" stroke-linecap="round" stroke-linejoin="round"/>
<path d="M20.3692 18.6519C20.3692 19.6011 19.6012 20.3692 18.6519 20.3692" stroke="#757575" stroke-width="1.3" stroke-linecap="round" stroke-linejoin="round"/>
<path d="M8.34808 6.63062H18.652" stroke="#757575" stroke-width="1.3" stroke-linecap="round" stroke-linejoin="round"/>
<path d="M20.3693 8.34814V18.652" stroke="#757575" stroke-width="1.3" stroke-linecap="round" stroke-linejoin="round"/>
<path d="M18.652 20.3691H8.34808" stroke="#757575" stroke-width="1.3" stroke-linecap="round" stroke-linejoin="round"/>
<path d="M6.63074 8.34814V18.652" stroke="#757575" stroke-width="1.3" stroke-linecap="round" stroke-linejoin="round"/>
</g>
<defs>
<clipPath id="clip0_798_524">
<rect width="27" height="27" fill="white"/>
</clipPath>
</defs>
</svg>
