<svg width="28" height="21" viewBox="0 0 28 21" fill="none" xmlns="http://www.w3.org/2000/svg">
<g clip-path="url(#clip0_798_554)">
<path d="M2.42401 20.2949V0.704834" stroke="#757575" stroke-width="1.3" stroke-linecap="round" stroke-linejoin="round"/>
<path d="M0.643066 0.704834H2.42398" stroke="#757575" stroke-width="1.3" stroke-linecap="round" stroke-linejoin="round"/>
<path d="M2.42401 2.48584H27.3569" stroke="#757575" stroke-width="1.3" stroke-linecap="round" stroke-linejoin="round"/>
<path d="M27.3569 14.9521H2.42401" stroke="#757575" stroke-width="1.3" stroke-linecap="round" stroke-linejoin="round"/>
<path d="M27.3569 2.48584V14.9523" stroke="#757575" stroke-width="1.3" stroke-linecap="round" stroke-linejoin="round"/>
<path d="M6.03531 17.2278L5.98584 14.9521" stroke="#757575" stroke-width="1.3" stroke-linecap="round" stroke-linejoin="round"/>
<path d="M16.7208 17.2278L16.6713 14.9521" stroke="#757575" stroke-width="1.3" stroke-linecap="round" stroke-linejoin="round"/>
<path d="M6.03528 17.2278H16.7208" stroke="#757575" stroke-width="1.3" stroke-linecap="round" stroke-linejoin="round"/>
<path d="M9.54767 14.9521L9.59714 17.2278" stroke="#757575" stroke-width="1.3" stroke-linecap="round" stroke-linejoin="round"/>
<path d="M13.1095 14.9521L13.159 17.2278" stroke="#757575" stroke-width="1.3" stroke-linecap="round" stroke-linejoin="round"/>
<path d="M9.54768 12.2809C11.5148 12.2809 13.1095 10.6862 13.1095 8.71906C13.1095 6.75192 11.5148 5.15723 9.54768 5.15723C7.58053 5.15723 5.98584 6.75192 5.98584 8.71906C5.98584 10.6862 7.58053 12.2809 9.54768 12.2809Z" stroke="#757575" stroke-width="1.3" stroke-linecap="round" stroke-linejoin="round"/>
<path d="M20.2332 12.2809C22.2003 12.2809 23.795 10.6862 23.795 8.71906C23.795 6.75192 22.2003 5.15723 20.2332 5.15723C18.266 5.15723 16.6713 6.75192 16.6713 8.71906C16.6713 10.6862 18.266 12.2809 20.2332 12.2809Z" stroke="#757575" stroke-width="1.3" stroke-linecap="round" stroke-linejoin="round"/>
<ellipse cx="9.54765" cy="8.71904" rx="0.64311" ry="0.643109" fill="#757575"/>
<ellipse cx="20.2332" cy="8.71904" rx="0.64311" ry="0.643109" fill="#757575"/>
</g>
<defs>
<clipPath id="clip0_798_554">
<rect width="28" height="20.8763" fill="white" transform="translate(0 0.0617676)"/>
</clipPath>
</defs>
</svg>
