<svg width="28" height="27" viewBox="0 0 28 27" fill="none" xmlns="http://www.w3.org/2000/svg">
<g clip-path="url(#clip0_798_638)">
<path d="M25.5759 13.4999C26.5604 13.4999 27.3568 12.7034 27.3568 11.719" stroke="#757575" stroke-width="1.3" stroke-linecap="round" stroke-linejoin="round"/>
<path d="M25.5759 1.03345C26.5604 1.03345 27.3568 1.82991 27.3568 2.81437" stroke="#757575" stroke-width="1.3" stroke-linecap="round" stroke-linejoin="round"/>
<path d="M2.42398 1.03345C1.43953 1.03345 0.643066 1.82991 0.643066 2.81437" stroke="#757575" stroke-width="1.3" stroke-linecap="round" stroke-linejoin="round"/>
<path d="M25.5759 13.5H0.643066" stroke="#757575" stroke-width="1.3" stroke-linecap="round" stroke-linejoin="round"/>
<path d="M2.42401 1.03345H25.576" stroke="#757575" stroke-width="1.3" stroke-linecap="round" stroke-linejoin="round"/>
<path d="M27.3568 11.719V2.81445" stroke="#757575" stroke-width="1.3" stroke-linecap="round" stroke-linejoin="round"/>
<path d="M0.643066 2.81445V13.5" stroke="#757575" stroke-width="1.3" stroke-linecap="round" stroke-linejoin="round"/>
<path d="M21.1236 10.8285C23.0908 10.8285 24.6854 9.23382 24.6854 7.26667C24.6854 5.29952 23.0908 3.70483 21.1236 3.70483C19.1565 3.70483 17.5618 5.29952 17.5618 7.26667C17.5618 9.23382 19.1565 10.8285 21.1236 10.8285Z" stroke="#757575" stroke-width="1.3" stroke-linecap="round" stroke-linejoin="round"/>
<ellipse cx="21.1236" cy="7.26664" rx="0.64311" ry="0.643109" fill="#757575"/>
<path d="M13.9999 10.8285C15.9671 10.8285 17.5618 9.23382 17.5618 7.26667C17.5618 5.29952 15.9671 3.70483 13.9999 3.70483C12.0328 3.70483 10.4381 5.29952 10.4381 7.26667C10.4381 9.23382 12.0328 10.8285 13.9999 10.8285Z" stroke="#757575" stroke-width="1.3" stroke-linecap="round" stroke-linejoin="round"/>
<ellipse cx="13.9999" cy="7.26664" rx="0.64311" ry="0.643109" fill="#757575"/>
<path d="M6.87629 10.8285C8.84344 10.8285 10.4381 9.23382 10.4381 7.26667C10.4381 5.29952 8.84344 3.70483 6.87629 3.70483C4.90914 3.70483 3.31445 5.29952 3.31445 7.26667C3.31445 9.23382 4.90914 10.8285 6.87629 10.8285Z" stroke="#757575" stroke-width="1.3" stroke-linecap="round" stroke-linejoin="round"/>
<ellipse cx="6.87626" cy="7.26664" rx="0.64311" ry="0.643109" fill="#757575"/>
<path d="M19.3427 25.9664C21.8016 25.9664 23.795 23.973 23.795 21.5141C23.795 19.0551 21.8016 17.0618 19.3427 17.0618C16.8837 17.0618 14.8904 19.0551 14.8904 21.5141C14.8904 23.973 16.8837 25.9664 19.3427 25.9664Z" stroke="#757575" stroke-width="1.3" stroke-linecap="round" stroke-linejoin="round"/>
<path d="M23.795 17.0618L22.491 18.3658" stroke="#757575" stroke-width="1.3" stroke-linecap="round" stroke-linejoin="round"/>
<path d="M23.795 25.9664L22.5859 24.7573" stroke="#757575" stroke-width="1.3" stroke-linecap="round" stroke-linejoin="round"/>
<path d="M14.8904 17.0618L16.1944 18.3658" stroke="#757575" stroke-width="1.3" stroke-linecap="round" stroke-linejoin="round"/>
<path d="M14.8904 25.9664L16.1944 24.6624" stroke="#757575" stroke-width="1.3" stroke-linecap="round" stroke-linejoin="round"/>
<path d="M15.0952 20.1785H5.09534" stroke="#757575" stroke-width="1.3" stroke-linecap="round" stroke-linejoin="round"/>
<path d="M15.0942 22.8499H5.09534" stroke="#757575" stroke-width="1.3" stroke-linecap="round" stroke-linejoin="round"/>
<path d="M5.09537 20.1784C4.11092 20.1784 3.31445 19.3819 3.31445 18.3975" stroke="#757575" stroke-width="1.3" stroke-linecap="round" stroke-linejoin="round"/>
<path d="M5.09536 22.8498C2.63473 22.8498 0.643066 20.8581 0.643066 18.3975" stroke="#757575" stroke-width="1.3" stroke-linecap="round" stroke-linejoin="round"/>
<path d="M3.31445 18.3975V13.5" stroke="#757575" stroke-width="1.3" stroke-linecap="round" stroke-linejoin="round"/>
<path d="M0.643066 18.3975V13.5" stroke="#757575" stroke-width="1.3" stroke-linecap="round" stroke-linejoin="round"/>
</g>
<defs>
<clipPath id="clip0_798_638">
<rect width="28" height="26.2191" fill="white" transform="translate(0 0.390381)"/>
</clipPath>
</defs>
</svg>
