<svg width="21" height="29" viewBox="0 0 21 29" fill="none" xmlns="http://www.w3.org/2000/svg">
<g clip-path="url(#clip0_798_667)">
<path d="M0.643127 2.92399C0.643127 1.93953 1.43959 1.14307 2.42405 1.14307" stroke="#757575" stroke-width="1.3" stroke-linecap="round" stroke-linejoin="round"/>
<path d="M20.2333 2.92399C20.2333 1.93953 19.4368 1.14307 18.4523 1.14307" stroke="#757575" stroke-width="1.3" stroke-linecap="round" stroke-linejoin="round"/>
<path d="M0.643127 26.0759C0.643127 27.0604 1.43959 27.8568 2.42405 27.8568" stroke="#757575" stroke-width="1.3" stroke-linecap="round" stroke-linejoin="round"/>
<path d="M20.2333 26.0759C20.2333 27.0604 19.4368 27.8568 18.4523 27.8568" stroke="#757575" stroke-width="1.3" stroke-linecap="round" stroke-linejoin="round"/>
<path d="M0.643127 2.92407V26.076" stroke="#757575" stroke-width="1.3" stroke-linecap="round" stroke-linejoin="round"/>
<path d="M20.2332 26.076V2.92407" stroke="#757575" stroke-width="1.3" stroke-linecap="round" stroke-linejoin="round"/>
<path d="M2.42407 1.14307H18.4523" stroke="#757575" stroke-width="1.3" stroke-linecap="round" stroke-linejoin="round"/>
<path d="M18.4523 27.8569H2.42407" stroke="#757575" stroke-width="1.3" stroke-linecap="round" stroke-linejoin="round"/>
<path d="M4.20496 27.857V24.2952" stroke="#757575" stroke-width="1.3" stroke-linecap="round" stroke-linejoin="round"/>
<path d="M7.32159 27.857V24.2952" stroke="#757575" stroke-width="1.3" stroke-linecap="round" stroke-linejoin="round"/>
<path d="M10.4382 27.857V24.2952" stroke="#757575" stroke-width="1.3" stroke-linecap="round" stroke-linejoin="round"/>
<path d="M16.6714 27.857V24.2952" stroke="#757575" stroke-width="1.3" stroke-linecap="round" stroke-linejoin="round"/>
<path d="M4.20496 24.2952H16.6714" stroke="#757575" stroke-width="1.3" stroke-linecap="round" stroke-linejoin="round"/>
<path d="M13.5548 27.857V24.2952" stroke="#757575" stroke-width="1.3" stroke-linecap="round" stroke-linejoin="round"/>
<path d="M10.2156 14.5H10.6608" stroke="#757575" stroke-width="1.3" stroke-linecap="round" stroke-linejoin="round"/>
<path d="M9.10248 16.7261H10.6608" stroke="#757575" stroke-width="1.3" stroke-linecap="round" stroke-linejoin="round"/>
<path d="M10.2156 12.2739H11.7729" stroke="#757575" stroke-width="1.3" stroke-linecap="round" stroke-linejoin="round"/>
<path d="M10.2156 14.5001C9.60114 14.5001 9.10248 14.0014 9.10248 13.387C9.10248 12.7726 9.60114 12.2739 10.2156 12.2739" stroke="#757575" stroke-width="1.3" stroke-linecap="round" stroke-linejoin="round"/>
<path d="M10.6598 14.5C11.2742 14.5 11.7729 14.9987 11.7729 15.6131C11.7729 16.2275 11.2742 16.7261 10.6598 16.7261" stroke="#757575" stroke-width="1.3" stroke-linecap="round" stroke-linejoin="round"/>
<path d="M4.8728 14.5H5.31803" stroke="#757575" stroke-width="1.3" stroke-linecap="round" stroke-linejoin="round"/>
<path d="M3.7597 16.7261H5.31801" stroke="#757575" stroke-width="1.3" stroke-linecap="round" stroke-linejoin="round"/>
<path d="M4.8728 12.2739H6.43012" stroke="#757575" stroke-width="1.3" stroke-linecap="round" stroke-linejoin="round"/>
<path d="M4.87278 14.5001C4.25836 14.5001 3.7597 14.0014 3.7597 13.387C3.7597 12.7726 4.25836 12.2739 4.87278 12.2739" stroke="#757575" stroke-width="1.3" stroke-linecap="round" stroke-linejoin="round"/>
<path d="M5.31702 14.5C5.93143 14.5 6.43009 14.9987 6.43009 15.6131C6.43009 16.2275 5.93143 16.7261 5.31702 16.7261" stroke="#757575" stroke-width="1.3" stroke-linecap="round" stroke-linejoin="round"/>
<path d="M14.4453 16.7262V12.2739H15.7809C16.519 12.2739 17.1166 12.8715 17.1166 13.6096V15.3905C17.1166 16.1286 16.519 16.7262 15.7809 16.7262H14.4453Z" stroke="#757575" stroke-width="1.3" stroke-linecap="round" stroke-linejoin="round"/>
</g>
<defs>
<clipPath id="clip0_798_667">
<rect width="20.8763" height="28" fill="white" transform="translate(0 0.5)"/>
</clipPath>
</defs>
</svg>
