<svg width="28" height="21" viewBox="0 0 28 21" fill="none" xmlns="http://www.w3.org/2000/svg">
<g clip-path="url(#clip0_798_697)">
<path d="M27.3569 1.59546H0.643127V19.4046H27.3569V1.59546Z" stroke="#757575" stroke-width="1.3" stroke-linecap="round" stroke-linejoin="round"/>
<path d="M23.795 5.15723V7.8286" stroke="#757575" stroke-width="1.3" stroke-linecap="round" stroke-linejoin="round"/>
<path d="M18.4523 5.15723V7.8286" stroke="#757575" stroke-width="1.3" stroke-linecap="round" stroke-linejoin="round"/>
<path d="M18.4523 5.15723H23.795" stroke="#757575" stroke-width="1.3" stroke-linecap="round" stroke-linejoin="round"/>
<path d="M22.9046 8.71924H19.3428" stroke="#757575" stroke-width="1.3" stroke-linecap="round" stroke-linejoin="round"/>
<path d="M18.4523 7.82861L19.3427 8.71907" stroke="#757575" stroke-width="1.3" stroke-linecap="round" stroke-linejoin="round"/>
<path d="M23.7951 7.82861L22.9046 8.71907" stroke="#757575" stroke-width="1.3" stroke-linecap="round" stroke-linejoin="round"/>
<path d="M9.54771 15.8427C12.4984 15.8427 14.8905 13.4507 14.8905 10.5C14.8905 7.54926 12.4984 5.15723 9.54771 5.15723C6.59699 5.15723 4.20496 7.54926 4.20496 10.5C4.20496 13.4507 6.59699 15.8427 9.54771 15.8427Z" stroke="#757575" stroke-width="1.3" stroke-linecap="round" stroke-linejoin="round"/>
<path d="M9.5477 12.2811C10.5313 12.2811 11.3286 11.4837 11.3286 10.5002C11.3286 9.51658 10.5313 8.71924 9.5477 8.71924C8.56413 8.71924 7.76678 9.51658 7.76678 10.5002C7.76678 11.4837 8.56413 12.2811 9.5477 12.2811Z" stroke="#757575" stroke-width="1.3" stroke-linecap="round" stroke-linejoin="round"/>
<path d="M10.8073 9.24068L13.3253 6.72266" stroke="#757575" stroke-width="1.3" stroke-linecap="round" stroke-linejoin="round"/>
<path d="M8.28816 11.7595L5.77014 14.2775" stroke="#757575" stroke-width="1.3" stroke-linecap="round" stroke-linejoin="round"/>
<path d="M10.8073 11.7595L13.3253 14.2775" stroke="#757575" stroke-width="1.3" stroke-linecap="round" stroke-linejoin="round"/>
<path d="M8.28816 9.24068L5.77014 6.72266" stroke="#757575" stroke-width="1.3" stroke-linecap="round" stroke-linejoin="round"/>
</g>
<defs>
<clipPath id="clip0_798_697">
<rect width="28" height="19.0954" fill="white" transform="translate(0 0.952393)"/>
</clipPath>
</defs>
</svg>
