<svg width="10" height="19" viewBox="0 0 10 19" fill="none" xmlns="http://www.w3.org/2000/svg">
<path d="M0.3824 18.5818C0.13755 18.3139 9.07806e-07 17.9507 8.9125e-07 17.5719C8.74694e-07 17.1931 0.13755 16.8299 0.3824 16.562L6.84743 9.49138L0.3824 2.42074C0.144489 2.15134 0.0128443 1.79052 0.0158207 1.416C0.0187961 1.04147 0.156154 0.683209 0.398309 0.418372C0.640464 0.153532 0.968042 0.00330964 1.31049 5.37856e-05C1.65294 -0.00320017 1.98285 0.140776 2.22918 0.400973L9.6176 8.48149C9.86245 8.74936 10 9.11261 10 9.49138C10 9.87014 9.86245 10.2334 9.6176 10.5013L2.22918 18.5818C1.98425 18.8496 1.65211 19 1.30579 19C0.959467 19 0.627324 18.8496 0.3824 18.5818Z" fill="#757575"/>
</svg>
